<?xml version="1.0" standalone="no"?>
<!DOCTYPE svg PUBLIC "-//W3C//DTD SVG 20010904//EN"
 "http://www.w3.org/TR/2001/REC-SVG-20010904/DTD/svg10.dtd">
<svg version="1.0" xmlns="http://www.w3.org/2000/svg"
 width="625.000000pt" height="625.000000pt" viewBox="0 0 625.000000 625.000000"
 preserveAspectRatio="xMidYMid meet">
<metadata>
Created by potrace 1.14, written by Peter Selinger 2001-2017
</metadata>
<g transform="translate(0.000000,625.000000) scale(0.100000,-0.100000)"
fill="#000000" stroke="none">
<path d="M0 3125 l0 -3125 3125 0 3125 0 0 3125 0 3125 -3125 0 -3125 0 0
-3125z m4720 2735 c0 -5 -4 -10 -10 -10 -5 0 -10 5 -10 10 0 6 5 10 10 10 6 0
10 -4 10 -10z m-730 -770 c0 -5 -4 -10 -10 -10 -5 0 -10 5 -10 10 0 6 5 10 10
10 6 0 10 -4 10 -10z m-1490 -120 c0 -5 -4 -10 -10 -10 -5 0 -10 5 -10 10 0 6
5 10 10 10 6 0 10 -4 10 -10z m160 -50 c0 -5 -4 -10 -10 -10 -5 0 -10 5 -10
10 0 6 5 10 10 10 6 0 10 -4 10 -10z m-1380 -15 c0 -8 -9 -15 -20 -15 -11 0
-20 7 -20 15 0 8 9 15 20 15 11 0 20 -7 20 -15z m730 -140 c0 -8 -9 -15 -20
-15 -11 0 -20 7 -20 15 0 8 9 15 20 15 11 0 20 -7 20 -15z m-1030 -265 c0 -5
-4 -10 -10 -10 -5 0 -10 5 -10 10 0 6 5 10 10 10 6 0 10 -4 10 -10z m1290
-250 c0 -25 -4 -30 -25 -30 -21 0 -25 5 -25 30 0 25 4 30 25 30 21 0 25 -5 25
-30z m2640 -340 c0 -25 -4 -30 -25 -30 -21 0 -25 5 -25 30 0 25 4 30 25 30 21
0 25 -5 25 -30z m-3640 -89 c5 -11 10 -58 10 -104 l0 -85 -77 -30 c-132 -50
-121 -51 -125 10 l-3 53 -190 0 c-213 0 -228 -4 -245 -63 -13 -49 -12 -178 3
-222 19 -55 38 -60 265 -60 112 0 202 -3 200 -7 -2 -5 -22 -45 -46 -90 l-42
-83 -183 0 c-221 0 -268 10 -331 73 -58 59 -71 109 -71 277 0 168 13 218 71
277 68 68 92 72 446 72 294 1 308 0 318 -18z m508 -8 c14 -21 188 -353 344
-655 8 -17 -9 -18 -294 -18 l-303 0 -28 73 c-15 41 -27 79 -27 85 0 9 48 12
173 12 l174 0 -91 180 c-60 119 -96 180 -107 180 -11 0 -58 -84 -147 -265
l-132 -265 -115 0 c-63 0 -115 2 -115 5 0 4 197 381 332 638 l31 57 143 0 143
0 19 -27z m2171 -9 c42 -23 62 -43 85 -85 l31 -54 0 -175 0 -175 -31 -54 c-23
-42 -43 -62 -85 -85 l-54 -31 -244 -3 c-265 -4 -310 3 -379 54 -62 48 -76 92
-80 252 l-4 142 99 0 98 0 0 -102 c0 -119 9 -143 63 -158 49 -13 331 -13 370
1 43 15 55 59 50 187 -5 158 27 146 -403 150 l-355 3 0 -265 0 -266 -100 0
-100 0 0 265 0 265 -347 -2 c-344 -3 -348 -3 -351 -24 -2 -11 3 -26 10 -31 7
-6 117 -25 243 -43 278 -38 293 -41 330 -80 28 -30 30 -36 33 -130 4 -116 -10
-157 -67 -192 -35 -22 -43 -23 -290 -23 l-255 0 -43 80 c-23 44 -43 83 -43 88
0 4 99 7 219 7 121 0 226 3 235 6 11 4 16 19 16 45 0 46 22 40 -255 74 -228
28 -268 36 -304 61 -27 20 -51 71 -51 113 0 16 -6 32 -12 34 -10 4 -10 8 -2
14 6 4 15 27 19 51 8 52 46 99 88 111 19 6 397 9 922 8 l890 -2 54 -31z m876
25 c53 -15 110 -73 125 -129 7 -26 10 -83 8 -135 -3 -72 -8 -98 -26 -127 -33
-53 -81 -79 -158 -86 -35 -2 -64 -7 -64 -9 0 -2 104 -114 231 -248 186 -197
234 -243 248 -235 9 5 59 52 111 104 l95 96 125 0 125 0 -169 -163 -169 -162
171 -182 c95 -100 172 -184 172 -187 0 -3 -56 -6 -125 -6 l-126 0 -61 65 c-39
42 -66 64 -76 60 -9 -3 -12 0 -9 9 4 9 -12 34 -38 63 l-45 48 -120 -123 -120
-123 -122 3 -122 3 178 182 178 183 -344 350 -343 351 -3 -146 -3 -145 -99 0
-100 0 0 343 c0 189 3 347 7 350 11 12 624 8 668 -4z m1180 -87 l0 -94 -88
-34 c-49 -19 -91 -34 -93 -34 -2 0 -4 23 -4 50 l0 50 -183 0 c-129 0 -187 -4
-195 -12 -7 -7 -12 -31 -12 -55 0 -32 5 -45 19 -53 12 -6 123 -10 290 -10
l271 0 0 -205 0 -205 -257 -2 c-362 -2 -422 1 -462 20 -60 29 -76 62 -80 163
-3 96 8 140 41 164 20 13 20 14 -4 45 -20 27 -23 43 -23 113 0 104 20 147 78
176 40 20 56 21 372 19 l330 -3 0 -93z m-3135 -472 c0 -5 -4 -10 -10 -10 -5 0
-10 5 -10 10 0 6 5 10 10 10 6 0 10 -4 10 -10z m-1913 -238 c24 -12 54 -39 68
-60 54 -82 55 -291 2 -371 -46 -69 -73 -76 -317 -79 l-215 -3 -30 78 -30 78
-3 -157 -3 -158 -99 0 -100 0 0 334 c0 184 3 342 6 351 6 14 39 16 343 13 327
-3 337 -4 378 -26z m940 0 c54 -28 80 -56 106 -112 19 -39 21 -64 22 -195 0
-183 -12 -232 -70 -290 -63 -63 -99 -70 -380 -70 -238 0 -240 0 -296 26 -61
29 -98 71 -120 134 -19 54 -19 325 0 378 23 68 84 124 161 148 14 4 140 7 280
6 243 -2 257 -3 297 -25z m405 -224 l3 -253 288 -3 287 -2 0 -95 0 -95 -374 0
c-335 0 -375 2 -387 17 -11 13 -15 85 -17 350 l-3 333 100 0 101 0 2 -252z
m850 0 l3 -253 283 -3 282 -2 0 -95 0 -95 -369 0 -370 0 -15 22 c-14 19 -16
70 -16 350 l0 328 100 0 100 0 2 -252z m828 23 c0 -229 0 -230 24 -258 l24
-28 187 0 187 0 24 28 c24 28 24 29 24 258 l0 229 100 0 100 0 0 -243 c0 -260
-6 -306 -50 -368 -13 -18 -47 -43 -79 -58 -56 -26 -57 -26 -307 -26 l-250 0
-59 30 c-52 27 -63 38 -90 89 l-30 60 -3 258 -3 258 100 0 101 0 0 -229z
m-1160 194 c0 -8 -9 -15 -20 -15 -11 0 -20 7 -20 15 0 8 9 15 20 15 11 0 20
-7 20 -15z m-2710 -635 c0 -23 -4 -30 -20 -30 -16 0 -20 7 -20 30 0 23 4 30
20 30 16 0 20 -7 20 -30z m4640 -380 c0 -25 -4 -30 -25 -30 -21 0 -25 5 -25
30 0 25 4 30 25 30 21 0 25 -5 25 -30z m-780 -850 c0 -5 -4 -10 -10 -10 -5 0
-10 5 -10 10 0 6 5 10 10 10 6 0 10 -4 10 -10z m1190 -370 c0 -5 -4 -10 -10
-10 -5 0 -10 5 -10 10 0 6 5 10 10 10 6 0 10 -4 10 -10z m540 -405 c0 -8 -7
-15 -15 -15 -8 0 -15 7 -15 15 0 8 7 15 15 15 8 0 15 -7 15 -15z m-5460 -35
c0 -5 -4 -10 -10 -10 -5 0 -10 5 -10 10 0 6 5 10 10 10 6 0 10 -4 10 -10z"/>
<path d="M4358 3664 c-5 -4 -8 -43 -8 -86 l0 -78 189 0 c218 0 221 1 221 79 0
85 -2 86 -212 89 -101 2 -186 0 -190 -4z"/>
<path d="M5427 3423 c-12 -11 -8 -98 5 -111 8 -8 67 -12 199 -12 l188 0 3 42
3 42 65 16 c36 9 72 19 80 23 8 3 -109 6 -261 6 -152 1 -279 -2 -282 -6z"/>
<path d="M437 2884 c-4 -4 -7 -49 -7 -101 l0 -93 199 0 c168 0 202 2 215 16
22 21 30 57 23 106 -10 71 -14 73 -230 76 -106 2 -196 0 -200 -4z"/>
<path d="M1404 2883 c-43 -9 -57 -38 -62 -128 -2 -46 -1 -104 2 -130 11 -70
30 -78 196 -83 76 -3 164 -1 194 2 82 11 91 28 91 178 0 168 7 163 -223 165
-97 0 -187 -1 -198 -4z"/>
</g>
</svg>
